HIERARCHY
ROOT Hips
{
	OFFSET -0.001795 -0.223333 0.028219
	CHANNELS 6 Xposition Yposition Zposition Zrotation Yrotation Xrotation 
	JOINT LeftUpLeg
	{
		OFFSET 0.069520 -0.091406 -0.006815
		CHANNELS 3 Zrotation Yrotation Xrotation
		JOINT LeftLeg
		{
			OFFSET 0.034277 -0.375199 -0.004496
			CHANNELS 3 Zrotation Yrotation Xrotation
			JOINT LeftFoot
			{
				OFFSET -0.013596 -0.397961 -0.043693
				CHANNELS 3 Zrotation Yrotation Xrotation
				JOINT LeftToe
				{
					OFFSET 0.026358 -0.055791 0.119288
					CHANNELS 3 Zrotation Yrotation Xrotation
					End Site
					{
						OFFSET 0.000000 0.000000 0.000000
					}
				}
			}
		}
	}
	JOINT RightUpLeg
	{
		OFFSET -0.067670 -0.090522 -0.004320
		CHANNELS 3 Zrotation Yrotation Xrotation
		JOINT RightLeg
		{
			OFFSET -0.038290 -0.382569 -0.008850
			CHANNELS 3 Zrotation Yrotation Xrotation
			JOINT RightFoot
			{
				OFFSET 0.015774 -0.398415 -0.042312
				CHANNELS 3 Zrotation Yrotation Xrotation
				JOINT RightToe
				{
					OFFSET -0.025372 -0.048144 0.123348
					CHANNELS 3 Zrotation Yrotation Xrotation
					End Site
					{
						OFFSET 0.000000 0.000000 0.000000
					}
				}
			}
		}
	}
	JOINT Spine
	{
		OFFSET -0.002533 0.108963 -0.026696
		CHANNELS 3 Zrotation Yrotation Xrotation
		JOINT Spine1
		{
			OFFSET 0.005487 0.135180 0.001092
			CHANNELS 3 Zrotation Yrotation Xrotation
			JOINT Spine2
			{
				OFFSET 0.001457 0.052922 0.025425
				CHANNELS 3 Zrotation Yrotation Xrotation
				JOINT Neck
				{
					OFFSET -0.002778 0.213870 -0.042857
					CHANNELS 3 Zrotation Yrotation Xrotation
					JOINT Head
					{
						OFFSET 0.005152 0.064970 0.051349
						CHANNELS 3 Zrotation Yrotation Xrotation
						End Site
						{
							OFFSET 0.000000 0.000000 0.000000
						}
					}
				}
				JOINT LeftShoulder
				{
					OFFSET 0.078845 0.121749 -0.034090
					CHANNELS 3 Zrotation Yrotation Xrotation
					JOINT LeftArm
					{
						OFFSET 0.090977 0.030469 -0.008868
						CHANNELS 3 Zrotation Yrotation Xrotation
						JOINT LeftForeArm
						{
							OFFSET 0.259612 -0.012772 -0.027456
							CHANNELS 3 Zrotation Yrotation Xrotation
							JOINT LeftHand
							{
								OFFSET 0.249234 0.008986 -0.001171
								CHANNELS 3 Zrotation Yrotation Xrotation
								End Site
								{
									OFFSET 0.000000 0.000000 0.000000
								}
							}
						}
					}
				}
				JOINT RightShoulder
				{
					OFFSET -0.081759 0.118833 -0.038615
					CHANNELS 3 Zrotation Yrotation Xrotation
					JOINT RightArm
					{
						OFFSET -0.096012 0.032551 -0.009143
						CHANNELS 3 Zrotation Yrotation Xrotation
						JOINT RightForeArm
						{
							OFFSET -0.253742 -0.013329 -0.021401
							CHANNELS 3 Zrotation Yrotation Xrotation
							JOINT RightHand
							{
								OFFSET -0.255298 0.007772 -0.005559
								CHANNELS 3 Zrotation Yrotation Xrotation
								End Site
								{
									OFFSET 0.000000 0.000000 0.000000
								}
							}
						}
					}
				}
			}
		}
	}
}
MOTION
Frames: 8
Frame Time: 0.050000
-0.018755 0.618546 0.019316 -2.026098 -15.941879 37.648884 19.250154 0.119051 40.561075 -24.635510 -2.959317 -66.730547 45.621489 32.969072 90.036354 0.000000 0.000000 0.000000 -25.489147 10.644542 30.156806 18.069952 8.880005 -60.852347 -49.952751 -29.036007 103.406963 0.000000 0.000000 0.000000 4.277426 2.770390 -22.805333 8.795710 8.101764 -69.675981 -4.243628 6.237681 86.666401 -6.094914 4.211654 -116.116550 0.000000 0.000000 0.000000 -27.028234 8.689677 -0.775693 -36.073332 -3.472058 -15.282559 42.931580 68.418548 34.270397 0.000000 0.000000 0.000000 9.104107 -10.869351 -5.063089 41.754236 -11.697751 -19.430400 -39.349976 -48.273501 19.971123 0.000000 0.000000 0.000000 
-0.019100 0.617686 0.018579 -1.593450 -15.468062 37.460379 19.499155 -0.151498 40.160102 -25.086825 -3.292079 -66.437985 47.290712 33.448105 90.120471 0.000000 0.000000 0.000000 -25.404079 10.518135 30.472338 18.172518 8.808560 -61.192600 -51.555533 -28.991579 104.875076 0.000000 0.000000 0.000000 4.222344 2.641312 -22.438101 8.317577 7.868164 -69.832120 -4.033238 6.239989 86.535013 -7.253271 3.927607 -115.702398 0.000000 0.000000 0.000000 -27.473493 8.208648 -0.574806 -35.619085 -3.838283 -14.972902 43.401882 69.081133 34.673506 0.000000 0.000000 0.000000 9.627732 -10.487228 -4.791749 41.119589 -11.815326 -19.129181 -39.755370 -48.769161 20.258795 0.000000 0.000000 0.000000 
-0.019287 0.616820 0.017989 -1.320178 -15.042339 37.276218 19.780515 -0.394476 39.857119 -25.356449 -3.524651 -66.193978 48.685911 33.778053 90.440222 0.000000 0.000000 0.000000 -25.430419 10.446860 30.704693 18.415324 8.804001 -61.376067 -52.372561 -28.742563 106.274027 0.000000 0.000000 0.000000 4.084918 2.539350 -22.176827 7.787635 7.586245 -69.787003 -3.939523 5.858034 86.398063 -7.784230 3.874428 -115.832805 0.000000 0.000000 0.000000 -27.796511 8.139116 -0.489919 -35.679431 -4.061264 -14.917007 42.422169 69.004806 33.958114 0.000000 0.000000 0.000000 9.306890 -10.274471 -4.678898 41.036354 -11.905784 -19.032716 -39.630099 -48.511843 19.970725 0.000000 0.000000 0.000000 
-0.019356 0.616130 0.017609 -0.862694 -14.411332 37.173447 20.013876 -0.680029 39.636713 -25.620984 -3.847176 -66.044822 48.773058 34.033738 89.460505 0.000000 0.000000 0.000000 -25.211070 10.286615 31.353208 18.423334 8.631498 -61.713947 -51.909970 -28.876671 105.898878 0.000000 0.000000 0.000000 3.879714 2.462956 -22.224725 7.103994 7.230326 -69.880579 -3.522715 5.346744 86.557232 -9.079042 3.631760 -115.771572 0.000000 0.000000 0.000000 -27.888450 7.801068 -0.257098 -35.686954 -4.308454 -14.860416 41.923585 68.660306 33.383187 0.000000 0.000000 0.000000 9.229997 -10.164297 -4.587650 41.096308 -12.336881 -19.167551 -39.538631 -48.869814 20.078907 0.000000 0.000000 0.000000 
-0.019394 0.616144 0.017290 -0.297173 -13.639724 36.790960 20.501127 -1.101553 39.105869 -26.057512 -4.212975 -65.236286 49.448804 34.341344 89.024101 0.000000 0.000000 0.000000 -25.065432 10.091726 31.973764 18.619642 8.471729 -61.796165 -52.180625 -28.774384 106.614959 0.000000 0.000000 0.000000 3.326485 2.370960 -22.414298 7.018451 6.710965 -68.855462 -3.703906 5.218359 85.908181 -10.117840 3.458363 -115.385825 0.000000 0.000000 0.000000 -28.630563 7.887006 -0.430918 -34.987882 -4.401319 -14.503419 40.896741 68.004999 31.859704 0.000000 0.000000 0.000000 9.573310 -9.720679 -4.305768 41.385250 -12.757443 -19.280200 -38.850437 -48.803534 19.769463 0.000000 0.000000 0.000000 
-0.019540 0.616508 0.016825 -0.081429 -13.332039 36.742459 20.794119 -1.313627 38.579783 -26.298405 -4.316246 -64.565676 49.552687 34.470435 88.697375 0.000000 0.000000 0.000000 -25.163632 10.000307 31.824753 18.926113 8.497535 -61.662441 -53.082193 -28.611391 107.714232 0.000000 0.000000 0.000000 2.975458 2.334922 -22.548551 6.847594 6.405886 -68.149954 -3.176849 5.000076 85.380154 -11.297332 3.203596 -115.302802 0.000000 0.000000 0.000000 -28.990829 7.350759 -0.130134 -34.695967 -4.441602 -14.287462 38.678673 67.896962 29.953414 0.000000 0.000000 0.000000 9.749151 -9.617401 -4.222355 41.796737 -12.666597 -19.314660 -38.212075 -49.625793 19.919221 0.000000 0.000000 0.000000 
-0.019783 0.615785 0.016314 -0.012870 -13.173973 36.881807 20.869375 -1.383354 38.618064 -26.406545 -4.421636 -64.667717 48.887846 34.551958 87.614340 0.000000 0.000000 0.000000 -24.942592 9.930120 32.202705 18.580627 8.352201 -62.131827 -51.706812 -28.606328 106.974456 0.000000 0.000000 0.000000 2.483363 2.268781 -22.445930 7.326739 6.624655 -68.902331 -3.337365 4.843059 85.964994 -12.537511 3.061679 -115.492796 0.000000 0.000000 0.000000 -28.992538 7.571243 -0.271071 -34.348444 -4.087039 -14.301773 37.038205 66.732257 27.950358 0.000000 0.000000 0.000000 9.464600 -9.340413 -4.058539 42.532265 -12.535717 -19.632168 -37.290719 -49.960472 19.741542 0.000000 0.000000 0.000000 
-0.020199 0.615338 0.015831 -0.130824 -13.189794 36.994971 21.233312 -1.491031 38.450980 -26.656332 -4.453696 -64.335372 48.341754 34.434641 87.410218 0.000000 0.000000 0.000000 -24.828032 9.861238 32.117195 18.516788 8.294414 -61.743528 -50.661989 -28.830063 105.551005 0.000000 0.000000 0.000000 1.985768 2.269999 -22.618010 8.180177 6.587884 -67.937076 -3.354766 5.033444 85.324029 -13.733220 2.913512 -115.129445 0.000000 0.000000 0.000000 -28.640205 7.427577 -0.321468 -34.125405 -3.792502 -14.072689 35.768664 66.115714 26.494612 0.000000 0.000000 0.000000 9.210703 -9.158139 -3.951363 43.544044 -11.824602 -19.650554 -36.673753 -51.030225 20.165273 0.000000 0.000000 0.000000 
